<?xml version="1.0" encoding="utf-8"?>
<!-- Generator: Adobe Illustrator 22.1.0, SVG Export Plug-In . SVG Version: 6.00 Build 0)  -->
<svg version="1.1" id="Layer_1" xmlns="http://www.w3.org/2000/svg" xmlns:xlink="http://www.w3.org/1999/xlink" x="0px" y="0px"
	 viewBox="0 0 256 256" style="enable-background:new 0 0 256 256;" xml:space="preserve">
<style type="text/css">
	.st0{fill:#231F20;}
	.st1{fill:#FFEFE4;}
	.st2{fill:#69EBFC;}
	.st3{fill:#5FD4E3;}
	.st4{fill:#A1F1FC;}
	.st5{fill:#D476E2;}
	.st6{fill:#B665C2;}
	.st7{fill:#EA82FA;}
	.st8{fill:#FFF7F2;}
	.st9{fill:#FF8354;}
	.st10{fill:#FFA172;}
	.st11{fill:#6770E6;}
	.st12{fill:#5861C7;}
	.st13{fill:#E0734A;}
	.st14{fill:#EDD4C2;}
	.st15{fill:#CC6944;}
	.st16{fill:#858EFF;}
	.st17{fill:#C76642;}
	.st18{fill:#FFFFFF;}
	.st19{fill:#FFDEC7;}
	.st20{fill:#4E56B0;}
	.st21{fill:#94529E;}
	.st22{fill:#41B6C5;}
	.st23{fill:#9847A4;}
	.st24{fill:#C2552C;}
	.st25{fill:#CFB6A4;}
</style>
<g>
	<path class="st2" d="M193,256H63c-8.837,0-16-7.163-16-16V16c0-8.837,7.163-16,16-16h130c8.837,0,16,7.163,16,16v224
		C209,248.837,201.837,256,193,256z"/>
	<path class="st2" d="M193,256H63c-8.837,0-16-7.163-16-16V16c0-8.837,7.163-16,16-16h130c8.837,0,16,7.163,16,16v224
		C209,248.837,201.837,256,193,256z"/>
	<path class="st3" d="M193,250H63c-8.837,0-16-7.163-16-16v6c0,8.837,7.163,16,16,16h130c8.837,0,16-7.163,16-16v-6
		C209,242.837,201.837,250,193,250z"/>
	<path class="st4" d="M193,0H63c-8.837,0-16,7.163-16,16v6c0-8.837,7.163-16,16-16h130c8.837,0,16,7.163,16,16v-6
		C209,7.163,201.837,0,193,0z"/>
	<path class="st1" d="M57,238V30c0-4.418,3.582-8,8-8h126c4.418,0,8,3.582,8,8v208c0,4.418-3.582,8-8,8H65
		C60.582,246,57,242.418,57,238z"/>
	<path class="st3" d="M156,15h-56c-2.209,0-4-1.791-4-4v0c0-2.209,1.791-4,4-4h56c2.209,0,4,1.791,4,4v0
		C160,13.209,158.209,15,156,15z"/>
	<circle class="st3" cx="170" cy="11" r="4"/>
	<circle class="st11" cx="128.013" cy="127.739" r="90.625"/>
	<path class="st16" d="M128.013,44.114c48.878,0,88.711,38.697,90.551,87.125c0.044-1.162,0.074-2.327,0.074-3.5
		c0-50.051-40.574-90.625-90.625-90.625s-90.625,40.574-90.625,90.625c0,1.173,0.03,2.338,0.074,3.5
		C39.302,82.811,79.135,44.114,128.013,44.114z"/>
	<path class="st9" d="M141.34,114.427l-19.39-19.39l-9.916-9.916c-5.412-5.412-12.622-8.387-20.314-8.387
		c-7.687,0-14.901,2.975-20.309,8.387c-11.2,11.2-11.2,29.422,0,40.617l29.305,29.31c5.407,5.407,12.622,8.387,20.314,8.387
		c4.615,0,9.063-1.076,13.043-3.107l-11.226-11.226c-0.599,0.081-1.203,0.117-1.818,0.117c-3.894,0-7.54-1.503-10.261-4.224
		l-29.305-29.305c-5.656-5.661-5.656-14.861,0-20.517c2.721-2.726,6.367-4.224,10.256-4.224c3.894,0,7.534,1.498,10.261,4.224
		l9.276,9.276l10.428,10.428l9.601,9.601c4.321,4.321,5.341,10.713,3.051,16.008l10.428,10.428
		C152.393,139.741,151.251,124.337,141.34,114.427z"/>
	<path class="st9" d="M144.768,150.916c-0.995,1.457-2.137,2.843-3.427,4.133c-2.163,2.158-4.61,3.935-7.265,5.28l-11.226-11.226
		c3.199-0.386,6.143-1.813,8.438-4.107c1.335-1.335,2.356-2.869,3.051-4.508L144.768,150.916z"/>
	<path class="st2" d="M184.613,129.628l-29.305-29.31c-5.407-5.407-12.622-8.387-20.314-8.387c-4.615,0-9.063,1.076-13.043,3.107
		c-2.655,1.345-5.103,3.122-7.265,5.28c-1.29,1.29-2.432,2.676-3.427,4.133c-7.626,11.175-6.484,26.579,3.427,36.489l8.164,8.164
		c3.199-0.386,6.143-1.813,8.438-4.107c1.335-1.335,2.356-2.869,3.051-4.508l-9.601-9.601c-4.321-4.321-5.341-10.713-3.051-16.008
		c0.696-1.64,1.716-3.173,3.051-4.508c2.295-2.295,5.24-3.722,8.438-4.107c0.599-0.081,1.203-0.117,1.818-0.117
		c3.894,0,7.54,1.503,10.261,4.224l29.305,29.305c5.656,5.661,5.656,14.861,0,20.517c-2.721,2.726-6.367,4.224-10.256,4.224
		c-3.894,0-7.534-1.498-10.261-4.224l-9.276-9.276c-0.995,1.457-2.137,2.843-3.427,4.133c-2.163,2.158-4.61,3.935-7.265,5.28
		l9.916,9.916c5.412,5.412,12.622,8.387,20.314,8.387c7.687,0,14.901-2.975,20.309-8.387
		C195.813,159.044,195.813,140.823,184.613,129.628z"/>
</g>
</svg>
