<svg xmlns="http://www.w3.org/2000/svg" viewBox="0 0 64 64"><g id="_21-pass" data-name="21-pass"><path d="M58,19V29l-5,5H48l-3.72-3.72A3.981,3.981,0,0,0,46,27V25a2.006,2.006,0,0,0-2-2H41V18H32l-3,3-2-2-1-1-3,3V19A10,10,0,0,1,33,9H48A10,10,0,0,1,58,19Z" style="fill:#7e8596"/><path d="M24,19l-.952-.952c-.03.314-.048.631-.048.952v2l1.5-1.5Z" style="fill:#707789"/><polygon points="27.5 19.5 29 21 32 18 29 18 27.5 19.5" style="fill:#707789"/><path d="M48,9H45A10,10,0,0,1,55,19V29l-5,5h3l5-5V19A10,10,0,0,0,48,9Z" style="fill:#707789"/><path d="M42,41c0,5-5,5-5,5H27L21,35l6-8a30.836,30.836,0,0,1,10.25,5.18C39.89,34.34,42,37.25,42,41Z" style="fill:#96e8ff"/><path d="M37.25,32.18A30.836,30.836,0,0,0,27,27l-.6.8A28.653,28.653,0,0,1,34.25,32.18C36.89,34.34,39,37.25,39,41c0,5-5,5-5,5h3s5,0,5-5C42,37.25,39.89,34.34,37.25,32.18Z" style="fill:#19cffc"/><path d="M53,63H28V58l9-7v2s2.54-.63,6.18-1.9A9.874,9.874,0,0,0,43,53,10,10,0,0,0,53,63Z" style="fill:#19cffc"/><path d="M53,34v9a10.012,10.012,0,0,0-9.82,8.1C39.54,52.37,37,53,37,53V49l-3-3h3s5,0,5-5a9.282,9.282,0,0,0-.51-3.07,9.868,9.868,0,0,0-.88-1.96,14.8,14.8,0,0,0-3.36-3.79,20.451,20.451,0,0,0-2.34-1.67c-.6-.38-1.21-.73-1.8-1.04A33.244,33.244,0,0,0,27,27V19l2,2,3-3h9v5h3a2.006,2.006,0,0,1,2,2v2a3.981,3.981,0,0,1-1.72,3.28l1.01,1.01,1.42,1.42L48,34Z" style="fill:#ffb491"/><path d="M44,25v2a3.981,3.981,0,0,1-1.72,3.28l1.01,1.01,1.42,1.42L46,34h2l-1.29-1.29-1.42-1.42-1.01-1.01A3.981,3.981,0,0,0,46,27V25a2.006,2.006,0,0,0-2-2H42A2.006,2.006,0,0,1,44,25Z" style="fill:#ff915e"/><rect x="39" y="18" width="2" height="5" style="fill:#ff915e"/><polygon points="27 19 27 21 28 20 27 19" style="fill:#ff915e"/><path d="M51,34v9a10.012,10.012,0,0,0-9.82,8.1c-1.674.584-3.111,1.031-4.18,1.346V53s2.54-.63,6.18-1.9A10.012,10.012,0,0,1,53,43V34Z" style="fill:#ff915e"/><rect x="14" y="27" width="3" height="6" style="fill:#cdd2e1"/><polygon points="11 33 9 43 5 43 7 33 11 33" style="fill:#00a0aa"/><polygon points="7 33 5 43 1 43 3 33 7 33" style="fill:#00c8c8"/><path d="M14,27v6H3V29a2.006,2.006,0,0,1,2-2Z" style="fill:#64e1dc"/><path d="M21,11a10,10,0,0,1-7.84,9.76L11,24,8.84,20.76A10,10,0,1,1,21,11ZM11,18a2.989,2.989,0,0,0,2-5.22V6A2,2,0,0,0,9,6v6.78A2.989,2.989,0,0,0,11,18Z" style="fill:#cdd2e1"/><path d="M14,15a3,3,0,1,1-5-2.22V6a2,2,0,0,1,4,0v6.78A2.97,2.97,0,0,1,14,15Z" style="fill:#19cffc"/><rect x="32" y="11" width="2" height="2" style="fill:#9196aa"/><rect x="36" y="11" width="12" height="2" style="fill:#9196aa"/><rect x="10" y="14" width="2" height="2" style="fill:#96e8ff"/><rect x="11" y="10" width="2" height="2" style="fill:#96e8ff"/><rect x="11" y="7" width="2" height="2" style="fill:#96e8ff"/><path d="M42.42,23l-7.51,7.51c-.6-.38-1.21-.73-1.8-1.04L41,21.58V23Z" style="fill:#afb4c8"/><path d="M46.71,32.71l-5.22,5.22a9.868,9.868,0,0,0-.88-1.96l4.68-4.68Z" style="fill:#afb4c8"/><polygon points="59 50 51 58 47 54 49 52 51 54 57 48 59 50" style="fill:#64e1dc"/><path d="M53,43A10,10,0,1,1,43,53,10,10,0,0,1,53,43ZM51,58l8-8-2-2-6,6-2-2-2,2Z" style="fill:#00c8c8"/><polygon points="47 52 45 54 49 58 50 57 47 54 48 53 47 52" style="fill:#00a0aa"/><path d="M53,43a10.007,10.007,0,0,0-1,.051,10,10,0,0,1,0,19.9A10,10,0,1,0,53,43Z" style="fill:#00a0aa"/><rect x="49.464" y="50.293" width="7.071" height="1.414" transform="translate(-20.539 52.414) rotate(-45)" style="fill:#00a0aa"/><path d="M54,42.051V34.414l4.707-4.707A1,1,0,0,0,59,29V19A11.013,11.013,0,0,0,48,8H33A11.013,11.013,0,0,0,22,19v2a1,1,0,0,0,1.707.707L26,19.414v7.253L20.2,34.4a1,1,0,0,0-.078,1.079l6,11A1,1,0,0,0,27,47h6.586L36,49.414v1.1l-8.614,6.7A1,1,0,0,0,27,58v5a1,1,0,0,0,1,1H53a11,11,0,0,0,1-21.949ZM25.293,17.293,24.01,18.576A9.011,9.011,0,0,1,33,10H48a9.01,9.01,0,0,1,9,9v9.586L52.586,33H48.414l-2.679-2.68A4.978,4.978,0,0,0,47,27V25a3,3,0,0,0-3-3H42V18a1,1,0,0,0-1-1H32a1,1,0,0,0-.707.293L29,19.586l-2.293-2.293A1,1,0,0,0,25.293,17.293ZM35.648,29.767,41.414,24H44a1,1,0,0,1,1,1v2a3,3,0,0,1-3,3H40v2h2a4.978,4.978,0,0,0,2.116-.47l.47.47-3.245,3.245A17.787,17.787,0,0,0,35.648,29.767Zm-7.355-8.06a1,1,0,0,0,1.414,0L32.414,19H40v3.586l-6.136,6.136A34.552,34.552,0,0,0,28,26.252V21.414ZM22.186,35.086l5.2-6.927C30.155,29.043,41,33.015,41,41a3.85,3.85,0,0,1-4,4H27.594ZM37,47a5.785,5.785,0,0,0,6-6,10.656,10.656,0,0,0-.721-3.865L46,33.414l1.293,1.293A1,1,0,0,0,48,35h4v7.051a11.011,11.011,0,0,0-9.659,8.28c-1.829.626-3.352,1.082-4.341,1.362V49a1,1,0,0,0-.293-.707L36.414,47ZM29,62V58.489l7.009-5.451A.986.986,0,0,0,37,54a1.038,1.038,0,0,0,.241-.029c.09-.023,1.961-.492,4.782-1.423-.006.151-.023.3-.023.452a10.99,10.99,0,0,0,4.7,9Zm24,0a9,9,0,1,1,9-9A9.01,9.01,0,0,1,53,62Z"/><path d="M17,26H5a3,3,0,0,0-3,3v3.9L.02,42.8A1,1,0,0,0,1,44H9a1,1,0,0,0,.98-.8L11.82,34H17a1,1,0,0,0,1-1V27A1,1,0,0,0,17,26ZM4,29a1,1,0,0,1,1-1h8v4H4Zm.18,13H2.22l1.6-8H5.78Zm4,0H6.22l1.6-8H9.78ZM16,32H15V28h1Z"/><path d="M11,0A11,11,0,0,0,8.225,21.641l1.943,2.914a1,1,0,0,0,1.664,0l1.943-2.914A11,11,0,0,0,11,0Zm1.945,19.783a1,1,0,0,0-.617.422L11,22.2,9.672,20.2a1,1,0,0,0-.617-.422,9,9,0,1,1,3.89,0Z"/><path d="M59.707,49.293l-2-2a1,1,0,0,0-1.414,0L51,52.586l-1.293-1.293a1,1,0,0,0-1.414,0l-2,2a1,1,0,0,0,0,1.414l4,4a1,1,0,0,0,1.414,0l8-8A1,1,0,0,0,59.707,49.293ZM51,56.586,48.414,54,49,53.414l1.293,1.293a1,1,0,0,0,1.414,0L57,49.414l.586.586Z"/><rect x="32" y="11" width="2" height="2"/><rect x="36" y="11" width="12" height="2"/><path d="M14,6A3,3,0,0,0,8,6v6.37a4,4,0,1,0,6,0ZM11,17a2,2,0,0,1-2-2,1.974,1.974,0,0,1,.67-1.479,1,1,0,0,0,.33-.743V6a1,1,0,0,1,2,0V7H11V9h1v1H11v2h1v.778a1,1,0,0,0,.33.743A1.974,1.974,0,0,1,13,15,2,2,0,0,1,11,17Z"/><rect x="10" y="14" width="2" height="2"/></g></svg>