<?xml version="1.0" encoding="iso-8859-1"?>
<!-- Generator: Adobe Illustrator 22.0.1, SVG Export Plug-In . SVG Version: 6.00 Build 0)  -->
<svg version="1.1" id="Icons" xmlns="http://www.w3.org/2000/svg" xmlns:xlink="http://www.w3.org/1999/xlink" x="0px" y="0px"
	 viewBox="0 0 512 512" style="enable-background:new 0 0 512 512;" xml:space="preserve">
<g>
	<path id="XMLID_525_" style="fill:#29A4FC;" d="M512,255.904c0,70.692-28.654,134.692-74.981,181.019S326.692,511.904,256,511.904
		S121.308,483.25,74.981,436.924S0,326.597,0,255.904S28.654,121.212,74.981,74.885S185.308-0.096,256-0.096
		s134.692,28.654,181.019,74.981S512,185.212,512,255.904z"/>
	<g id="XMLID_1901_">
		<g id="XMLID_1921_">
			<g id="XMLID_1924_">
				<path id="XMLID_1966_" style="fill:#FBB47A;" d="M497.57,233.784l-8.435,7.205l-8.435,7.205l-5.315,4.545l-5.315,4.545
					c-0.335,0.285-0.668,0.57-0.999,0.859s-0.661,0.581-0.991,0.881c-1.45,1.27-2.875,2.57-4.275,3.894s-2.775,2.671-4.125,4.036
					c-6.13,6.185-11.777,12.812-16.967,19.795s-9.922,14.32-14.223,21.925c-2.57,4.535-5.89,8.592-9.79,12.005
					s-8.38,6.18-13.27,8.135v67.485v67.485c-5.315,3.83-10.787,7.46-16.402,10.88s-11.372,6.63-17.258,9.62
					c-7.98,4.055-16.2,7.705-24.634,10.92s-17.081,5.995-25.916,8.31c-3.07,0.81-6.162,1.563-9.276,2.258s-6.249,1.333-9.404,1.913
					v-80.905v-80.905c0-4.135-1.09-8.115-3.071-11.582s-4.854-6.423-8.419-8.508c-6.665-3.905-12.26-9.437-16.24-16.051
					s-6.345-14.309-6.55-22.539c-0.005-0.085-0.008-0.172-0.009-0.261s-0.001-0.179-0.001-0.269
					c-0.005-0.105-0.008-0.212-0.009-0.321s-0.001-0.219-0.001-0.329v-79.63v-79.63c0-2.37,0.48-4.628,1.347-6.68
					s2.122-3.9,3.673-5.45c1.265-1.265,2.725-2.335,4.334-3.159c1.609-0.824,3.366-1.401,5.226-1.681
					c0.415-0.06,0.837-0.105,1.266-0.135s0.864-0.045,1.304-0.045c0.1,0,0.198,0,0.295,0.001c0.097,0.001,0.195,0.004,0.295,0.009
					c1.78,0.06,3.493,0.393,5.098,0.956s3.103,1.359,4.452,2.344c2.125,1.56,3.878,3.6,5.099,5.96s1.911,5.04,1.911,7.88v35.065
					v35.065c0,1.155,0.467,2.198,1.222,2.951s1.797,1.219,2.947,1.219h0.88h0.88c1.155,0,2.2-0.465,2.956-1.219
					s1.224-1.796,1.224-2.951v-43.86v-43.86c0-2.475,0.525-4.83,1.47-6.956s2.31-4.024,3.99-5.584
					c0.805-0.755,1.68-1.43,2.616-2.015s1.934-1.08,2.984-1.475c0.165-0.065,0.33-0.125,0.496-0.181s0.334-0.109,0.504-0.159
					c0.75-0.24,1.525-0.425,2.32-0.554s1.61-0.201,2.44-0.216c4.805-0.095,9.175,1.897,12.344,5.116s5.136,7.664,5.136,12.474
					v43.635v43.635c0,1.155,0.468,2.198,1.223,2.951s1.798,1.219,2.948,1.219h1.1h1.1c1.155,0,2.197-0.465,2.951-1.219
					s1.219-1.796,1.219-2.951v-50.895V95.094c0-2.37,0.48-4.625,1.347-6.676s2.122-3.899,3.673-5.454
					c1.56-1.55,3.41-2.805,5.462-3.673s4.307-1.347,6.677-1.347c4.735,0,9.02,1.92,12.121,5.024s5.019,7.391,5.019,12.126v50.895
					v50.895c0,0.575,0.115,1.122,0.325,1.621s0.515,0.949,0.895,1.329s0.83,0.685,1.33,0.895s1.05,0.325,1.63,0.325
					c1.155,0,2.2-0.465,2.956-1.219s1.224-1.796,1.224-2.951v-43.86v-43.86c0-4.68,1.875-8.923,4.915-12.016
					s7.245-5.039,11.905-5.124c4.805-0.095,9.173,1.897,12.339,5.116s5.131,7.664,5.131,12.474v59.05v59.05
					c0,2.93,1.72,5.187,3.998,6.235s5.113,0.885,7.343-1.025l11.15-9.525l11.15-9.525l3.605-3.08l3.605-3.08
					c0.82-0.705,1.69-1.318,2.596-1.839s1.849-0.951,2.814-1.291c3.25-1.15,6.758-1.283,10.045-0.433s6.355,2.683,8.725,5.463
					c3.075,3.6,4.4,8.107,4.056,12.482S501.17,230.714,497.57,233.784z"/>
				<path id="XMLID_1949_" style="fill:#F8A068;" d="M321.22,363.144v70.185v70.185c-3.07,0.81-6.162,1.563-9.276,2.258
					s-6.249,1.333-9.404,1.913v-80.905v-80.905c0-4.135-1.09-8.115-3.071-11.582s-4.854-6.423-8.419-8.508
					c-6.665-3.905-12.26-9.437-16.24-16.051s-6.345-14.309-6.55-22.539c-0.005-0.085-0.008-0.172-0.009-0.261
					s-0.001-0.179-0.001-0.269c-0.005-0.105-0.008-0.212-0.009-0.321s-0.001-0.219-0.001-0.329v-79.63v-79.63
					c0-2.37,0.48-4.628,1.347-6.68s2.122-3.9,3.673-5.45c1.265-1.265,2.725-2.335,4.334-3.159c1.609-0.824,3.366-1.401,5.226-1.681
					v81.995v81.995c0,1.755,0.115,3.497,0.34,5.217s0.56,3.417,1,5.083c0.945,3.595,2.383,7.04,4.27,10.237
					c1.887,3.198,4.225,6.148,6.97,8.753c4.12,3.91,7.793,8.2,10.985,12.791s5.905,9.484,8.105,14.599
					c2.195,5.11,3.877,10.442,5.011,15.917S321.22,357.464,321.22,363.144z"/>
			</g>
			<path id="XMLID_1923_" style="fill:#F8A068;" d="M383.324,296.438c-0.321-0.156-0.64-0.318-0.958-0.485
				c-0.318-0.167-0.634-0.341-0.949-0.52c-7.359-4.184-12.494-10.942-14.873-18.561c-2.379-7.619-2-16.098,1.67-23.726
				c4.02-8.356,11.084-14.17,19.172-16.821c8.088-2.651,17.201-2.139,25.322,2.158c0.165,0.087,0.329,0.176,0.491,0.265
				c0.163,0.09,0.324,0.18,0.485,0.272c1.036,0.594,1.376,1.683,1.158,2.637c-0.218,0.954-0.993,1.773-2.186,1.824
				c-5.57,0.241-11.004,1.917-15.745,4.853c-4.74,2.937-8.788,7.135-11.585,12.422c-2.797,5.287-3.991,10.994-3.753,16.565
				c0.238,5.571,1.909,11.005,4.843,15.746c0.625,1.011,0.387,2.113-0.275,2.833C385.479,296.621,384.393,296.958,383.324,296.438z"
				/>
			<path id="XMLID_1922_" style="fill:#F8A068;" d="M429.379,227.31c0,0.758-0.105,1.509-0.312,2.249s-0.515,1.47-0.923,2.189
				c-3.199-5.716-12.474-10.741-25.562-14.337c-13.088-3.595-29.989-5.762-48.442-5.762c-18.452,0-35.354,2.166-48.442,5.762
				c-13.088,3.595-22.363,8.62-25.562,14.337c-0.407-0.718-0.716-1.448-0.923-2.189s-0.312-1.491-0.312-2.249
				c0-6.777,8.421-12.911,22.037-17.351c13.615-4.44,32.425-7.185,53.201-7.185s39.586,2.745,53.201,7.185
				C420.957,214.398,429.379,220.532,429.379,227.31z"/>
		</g>
		<g id="XMLID_1915_">
			<g id="XMLID_1918_">
				<path id="XMLID_1972_" style="fill:#FBB47A;" d="M241.75,126.754v79.63v79.63c0,0.195,0,0.39-0.003,0.585
					s-0.008,0.39-0.018,0.585c-0.205,8.23-2.567,15.927-6.545,22.544s-9.57,12.151-16.235,16.056
					c-3.565,2.085-6.437,5.04-8.419,8.508s-3.071,7.447-3.071,11.582v80.715v80.715c-3.155-0.605-6.29-1.267-9.404-1.987
					s-6.206-1.497-9.276-2.332c-8.47-2.3-16.77-5.025-24.871-8.15s-16.004-6.65-23.679-10.55
					c-6.255-3.175-12.365-6.602-18.314-10.267s-11.736-7.568-17.346-11.693v-66.755v-66.755c-4.895-1.955-9.375-4.722-13.274-8.135
					s-7.216-7.47-9.786-12.005c-4.305-7.605-9.04-14.943-14.23-21.925s-10.835-13.61-16.96-19.795
					c-1.35-1.365-2.725-2.713-4.125-4.036s-2.825-2.624-4.275-3.894c-0.33-0.3-0.66-0.593-0.991-0.881s-0.664-0.574-0.999-0.859
					l-5.32-4.545l-5.32-4.545l-8.43-7.205l-8.43-7.205c-3.6-3.07-5.612-7.312-5.956-11.687s0.981-8.883,4.056-12.482
					c2.37-2.78,5.435-4.613,8.72-5.463s6.79-0.717,10.04,0.433c0.965,0.34,1.907,0.77,2.815,1.291s1.78,1.134,2.605,1.839
					l3.605,3.08l3.605,3.08l11.15,9.525l11.15,9.525c2.23,1.91,5.062,2.072,7.338,1.025s3.993-3.305,3.993-6.235v-59.05v-59.05
					c0-4.81,1.967-9.255,5.136-12.474s7.539-5.211,12.344-5.116c4.66,0.085,8.865,2.03,11.905,5.124s4.915,7.336,4.915,12.016v43.86
					v43.86c0,1.155,0.467,2.198,1.223,2.951s1.798,1.219,2.948,1.219c0.585,0,1.137-0.115,1.639-0.325s0.951-0.515,1.331-0.895
					s0.685-0.83,0.895-1.329s0.325-1.046,0.325-1.621v-50.895V95.094c0-4.735,1.918-9.022,5.019-12.126s7.386-5.024,12.121-5.024
					c2.37,0,4.625,0.48,6.676,1.347s3.899,2.122,5.454,3.673c1.55,1.555,2.805,3.402,3.673,5.454s1.347,4.306,1.347,6.676v50.895
					v50.895c0,1.155,0.467,2.198,1.224,2.951s1.801,1.219,2.956,1.219h1.1h1.1c1.15,0,2.192-0.465,2.947-1.219
					s1.223-1.796,1.223-2.951v-43.635v-43.635c0-4.81,1.967-9.255,5.136-12.474s7.539-5.211,12.344-5.116
					c0.83,0.015,1.645,0.087,2.441,0.216s1.574,0.314,2.329,0.554c0.17,0.05,0.337,0.102,0.502,0.159s0.327,0.116,0.488,0.181
					c1.05,0.395,2.047,0.89,2.984,1.475s1.811,1.26,2.616,2.015c1.68,1.56,3.045,3.457,3.99,5.584s1.47,4.481,1.47,6.956v43.86
					v43.86c0,1.155,0.467,2.198,1.224,2.951s1.801,1.219,2.956,1.219h0.875h0.875c0.835,0,1.612-0.242,2.265-0.662
					s1.18-1.017,1.515-1.727c0.13-0.27,0.23-0.555,0.297-0.852s0.102-0.607,0.102-0.928v-35.065v-35.065
					c0-2.84,0.69-5.52,1.911-7.88s2.974-4.4,5.099-5.96c1.35-0.985,2.847-1.78,4.452-2.344s3.318-0.896,5.098-0.956
					c0.1-0.005,0.197-0.008,0.295-0.009s0.195-0.001,0.295-0.001c0.44,0,0.873,0.015,1.3,0.045s0.85,0.075,1.27,0.135
					c1.855,0.28,3.61,0.858,5.218,1.681s3.067,1.894,4.333,3.159c1.55,1.55,2.805,3.398,3.673,5.45S241.75,124.384,241.75,126.754z"
					/>
				<path id="XMLID_1951_" style="fill:#F8A068;" d="M241.75,126.754v79.63v79.63c0,0.195,0,0.39-0.003,0.585
					s-0.008,0.39-0.018,0.585c-0.205,8.23-2.567,15.927-6.545,22.544s-9.57,12.151-16.235,16.056
					c-3.565,2.085-6.437,5.04-8.419,8.508s-3.071,7.447-3.071,11.582v80.715v80.715c-3.155-0.605-6.29-1.267-9.404-1.987
					s-6.206-1.497-9.276-2.332v-69.92v-69.92c0-5.68,0.582-11.298,1.714-16.773s2.811-10.807,5.006-15.917
					c2.205-5.115,4.92-10.008,8.114-14.599s6.866-8.881,10.986-12.791c2.745-2.605,5.083-5.557,6.971-8.757
					s3.329-6.647,4.279-10.243c0.435-1.665,0.767-3.362,0.991-5.081s0.339-3.459,0.339-5.209v-81.995v-81.995
					c1.855,0.28,3.61,0.858,5.218,1.681s3.067,1.894,4.333,3.159c1.55,1.55,2.805,3.398,3.673,5.45S241.75,124.384,241.75,126.754z"
					/>
			</g>
			<path id="XMLID_1917_" style="fill:#F8A068;" d="M126.673,296.438c0.321-0.156,0.64-0.318,0.958-0.485
				c0.318-0.167,0.634-0.341,0.949-0.52c7.359-4.184,12.494-10.942,14.873-18.561c2.379-7.619,2-16.098-1.67-23.726
				c-4.02-8.356-11.084-14.17-19.172-16.821s-17.201-2.139-25.322,2.158c-0.165,0.087-0.329,0.176-0.491,0.265
				c-0.163,0.09-0.324,0.18-0.485,0.272c-1.036,0.594-1.376,1.683-1.158,2.637c0.218,0.954,0.993,1.773,2.186,1.824
				c5.57,0.241,11.004,1.917,15.745,4.853c4.74,2.937,8.788,7.135,11.585,12.422c2.797,5.287,3.991,10.994,3.753,16.565
				c-0.238,5.571-1.909,11.005-4.843,15.746c-0.625,1.011-0.387,2.113,0.275,2.833C124.519,296.621,125.604,296.958,126.673,296.438
				z"/>
			<path id="XMLID_1916_" style="fill:#F8A068;" d="M80.619,227.31c0,0.758,0.105,1.509,0.312,2.249s0.515,1.47,0.923,2.189
				c3.199-5.716,12.474-10.741,25.562-14.337c13.088-3.595,29.989-5.762,48.442-5.762s35.354,2.166,48.442,5.762
				c13.088,3.595,22.363,8.62,25.562,14.337c0.407-0.718,0.716-1.448,0.923-2.189c0.207-0.74,0.312-1.491,0.312-2.249
				c0-6.777-8.421-12.911-22.037-17.351c-13.615-4.44-32.425-7.185-53.201-7.185s-39.586,2.745-53.201,7.185
				C89.04,214.398,80.619,220.532,80.619,227.31z"/>
		</g>
		<g id="XMLID_1902_">
			<g id="XMLID_1908_">
				<path id="XMLID_1914_" style="fill:#D5D4D4;" d="M365.045,177.942c0,27.815-10.323,53.221-27.345,72.596
					s-40.744,32.718-67.543,36.407c-2.476,0.348-4.98,0.609-7.508,0.783c-2.528,0.174-5.08,0.261-7.651,0.261
					c-30.386,0-57.898-12.318-77.813-32.234s-32.234-47.427-32.234-77.813s12.318-57.898,32.234-77.813s47.427-32.234,77.813-32.234
					c2.572,0,5.123,0.087,7.651,0.261c2.528,0.174,5.032,0.435,7.508,0.783c26.799,3.689,50.52,17.032,67.543,36.407
					S365.045,150.127,365.045,177.942z"/>
				<path id="XMLID_1913_" style="fill:#FFFFFF;" d="M365.045,177.942c0,27.815-10.323,53.221-27.345,72.596
					s-40.744,32.718-67.543,36.407c-26.799-3.689-50.52-17.032-67.543-36.407s-27.345-44.781-27.345-72.596
					c0-27.815,10.323-53.221,27.345-72.596s40.744-32.718,67.543-36.407c26.799,3.689,50.52,17.032,67.543,36.407
					S365.045,150.127,365.045,177.942z"/>
			</g>
			<g id="XMLID_1903_">
				<path id="XMLID_1905_" style="fill:#C43C4D;" d="M331.673,159.099v18.844v18.844c0,3.587-1.456,6.836-3.808,9.188
					c-2.352,2.352-5.601,3.808-9.188,3.808h-9.422h-9.422c-3.587,0-6.836,1.456-9.188,3.808c-2.352,2.352-3.808,5.601-3.808,9.188
					v9.422v9.422c0,3.587-1.456,6.836-3.808,9.188s-5.601,3.808-9.188,3.808h-18.844h-18.844c-3.587,0-6.836-1.456-9.188-3.808
					c-2.352-2.352-3.808-5.601-3.808-9.188v-9.422v-9.422c0-3.587-1.456-6.836-3.808-9.188c-2.352-2.352-5.601-3.808-9.188-3.808
					h-9.422h-9.422c-3.587,0-6.836-1.456-9.188-3.808c-2.352-2.352-3.808-5.601-3.808-9.188v-18.844v-18.844
					c0-3.587,1.455-6.836,3.808-9.188c2.352-2.352,5.601-3.808,9.188-3.808h9.422h9.422c3.587,0,6.836-1.456,9.188-3.808
					c2.352-2.352,3.808-5.601,3.808-9.188v-9.422v-9.422c0-3.587,1.455-6.836,3.808-9.188c2.352-2.352,5.601-3.808,9.188-3.808
					h18.844h18.844c3.587,0,6.836,1.455,9.188,3.808s3.808,5.601,3.808,9.188v9.422v9.422c0,3.587,1.455,6.836,3.808,9.188
					s5.601,3.808,9.188,3.808h9.422h9.422c3.587,0,6.836,1.456,9.188,3.808C330.217,152.263,331.673,155.512,331.673,159.099z"/>
				<path id="XMLID_1904_" style="fill:#FB4755;" d="M331.673,159.099v18.844v18.844c0,3.587-1.456,6.836-3.808,9.188
					c-2.352,2.352-5.601,3.808-9.188,3.808h-9.422h-9.422c-3.587,0-6.836,1.456-9.188,3.808c-2.352,2.352-3.808,5.601-3.808,9.188
					v9.422v9.422c0,3.587-1.456,6.836-3.808,9.188s-5.601,3.808-9.188,3.808h-4.548h-4.548c-3.587,0-6.836-1.456-9.188-3.808
					s-3.808-5.601-3.808-9.188v-9.422v-9.422c0-3.587-1.455-6.836-3.808-9.188c-2.352-2.352-5.601-3.808-9.188-3.808h-9.422h-9.422
					c-3.587,0-6.836-1.456-9.188-3.808c-2.352-2.352-3.808-5.601-3.808-9.188v-18.844v-18.844c0-3.587,1.456-6.836,3.808-9.188
					c2.352-2.352,5.601-3.808,9.188-3.808h9.422h9.422c3.587,0,6.836-1.456,9.188-3.808c2.352-2.352,3.808-5.601,3.808-9.188v-9.422
					v-9.422c0-3.587,1.456-6.836,3.808-9.188s5.601-3.808,9.188-3.808h4.548h4.548c3.587,0,6.836,1.455,9.188,3.808
					s3.808,5.601,3.808,9.188v9.422v9.422c0,3.587,1.455,6.836,3.808,9.188s5.601,3.808,9.188,3.808h9.422h9.422
					c3.587,0,6.836,1.456,9.188,3.808C330.217,152.263,331.673,155.512,331.673,159.099z"/>
			</g>
		</g>
	</g>
</g>
</svg>
