<?xml version="1.0" encoding="utf-8"?>
<!-- Generator: Adobe Illustrator 16.0.0, SVG Export Plug-In . SVG Version: 6.00 Build 0)  -->
<!DOCTYPE svg PUBLIC "-//W3C//DTD SVG 1.1//EN" "http://www.w3.org/Graphics/SVG/1.1/DTD/svg11.dtd">
<svg version="1.1" id="Layer_1" xmlns="http://www.w3.org/2000/svg" xmlns:xlink="http://www.w3.org/1999/xlink" x="0px" y="0px"
	 width="128px" height="128px" viewBox="0 0 128 128" enable-background="new 0 0 128 128" xml:space="preserve">
<g>
	<g>
		<g>
			<path fill="#282D33" d="M96.625,56.695l-3.984-0.348c0.051-0.581,0.076-1.185,0.076-1.794h4
				C96.717,55.278,96.686,55.999,96.625,56.695z"/>
		</g>
		<g>
			<path fill="#282D33" d="M72.974,79.683L72.71,75.69c1.26-0.083,2.52-0.278,3.743-0.579l0.955,3.885
				C75.959,79.353,74.467,79.583,72.974,79.683z M68.493,79.596c-1.487-0.158-2.97-0.447-4.405-0.861l1.11-3.844
				c1.21,0.35,2.461,0.594,3.717,0.727L68.493,79.596z M81.658,77.545l-1.623-3.656c1.153-0.512,2.268-1.129,3.312-1.834
				l2.238,3.316C84.347,76.207,83.025,76.938,81.658,77.545z M59.901,77.115c-1.339-0.66-2.631-1.443-3.837-2.329l2.366-3.225
				c1.019,0.747,2.108,1.408,3.238,1.964L59.901,77.115z M89.069,72.543l-2.783-2.873c0.906-0.878,1.739-1.841,2.475-2.862
				l3.246,2.338C91.133,70.358,90.145,71.502,89.069,72.543z M52.692,71.821c-1.034-1.084-1.975-2.267-2.799-3.514l3.338-2.205
				c0.693,1.051,1.486,2.046,2.356,2.959L52.692,71.821z M94.298,65.276l-3.611-1.721c0.542-1.137,0.982-2.329,1.311-3.542
				l3.861,1.043C95.469,62.502,94.943,63.922,94.298,65.276z M47.763,64.349c-0.59-1.38-1.056-2.82-1.386-4.281l3.902-0.881
				c0.276,1.225,0.667,2.433,1.162,3.59L47.763,64.349z"/>
		</g>
		<g>
			<path fill="#282D33" d="M45.854,56.693c-0.06-0.693-0.09-1.414-0.09-2.14h4c0,0.612,0.025,1.216,0.076,1.795L45.854,56.693z"/>
		</g>
	</g>
	<g>
		<g>
			<path fill="#282D33" d="M108.166,128h-4V83.787c0-0.534,0.214-1.046,0.593-1.422c8.762-8.671,13.587-20.189,13.587-32.432
				C118.346,24.605,97.473,4,71.816,4C46.159,4,25.286,24.605,25.286,49.933c0,0.697,0.025,1.385,0.056,2.078
				c0.017,0.385-0.077,0.766-0.271,1.098l-13.93,23.831h7.79c1.104,0,2,0.896,2,2v18.922c0,6.025,4.971,10.928,11.082,10.928h20.724
				c1.104,0,2,0.896,2,2V128h-4v-15.211H32.013c-8.316,0-15.082-6.696-15.082-14.928V80.939H7.654c-0.716,0-1.378-0.383-1.735-1.005
				c-0.356-0.621-0.354-1.386,0.008-2.005l15.394-26.333c-0.021-0.553-0.036-1.106-0.036-1.664C21.286,22.4,43.954,0,71.816,0
				c27.862,0,50.529,22.4,50.529,49.933c0,13.04-5.028,25.322-14.18,34.679V128z"/>
		</g>
	</g>
	<g>
		<g>
			<g>
				<polygon fill="#282D33" points="44.799,43.051 40.799,43.049 40.807,25.706 58.34,25.701 58.341,29.701 44.805,29.705 				"/>
			</g>
			<g>
				
					<rect x="39.587" y="40.791" transform="matrix(0.7115 0.7027 -0.7027 0.7115 46.8253 -28.4671)" fill="#282D33" width="36.987" height="4"/>
			</g>
		</g>
		<g>
			<g>
				<polygon fill="#282D33" points="97.68,43.044 97.674,29.701 84.138,29.696 84.14,25.696 101.672,25.702 101.68,43.042 				"/>
			</g>
			<g>
				
					<rect x="82.431" y="24.309" transform="matrix(0.7027 0.7115 -0.7115 0.7027 55.5232 -47.3594)" fill="#282D33" width="4" height="36.899"/>
			</g>
		</g>
	</g>
	<g>
		<rect x="69.238" y="55.638" fill="#282D33" width="4" height="72.362"/>
	</g>
</g>
</svg>
